<mxfile host="app.diagrams.net" modified="2024-01-19T12:36:57.480Z" agent="Mozilla/5.0 (Macintosh; Intel Mac OS X 10_15_7) AppleWebKit/537.36 (KHTML, like Gecko) Chrome/120.0.0.0 Safari/537.36" etag="JQi3cQxHAOMAik8hnuoT" version="22.1.21" type="device">
  <diagram name="Page-1" id="8N-rprAAUmNVz3kRVr6d">
    <mxGraphModel dx="1327" dy="791" grid="1" gridSize="10" guides="1" tooltips="1" connect="1" arrows="1" fold="1" page="1" pageScale="1" pageWidth="850" pageHeight="1100" math="0" shadow="0">
      <root>
        <mxCell id="0" />
        <mxCell id="1" parent="0" />
        <mxCell id="qNAi8replDsRPzOtBU6N-45" value="" style="rounded=1;whiteSpace=wrap;html=1;strokeColor=none;" vertex="1" parent="1">
          <mxGeometry x="330" y="260" width="80" height="150" as="geometry" />
        </mxCell>
        <mxCell id="qNAi8replDsRPzOtBU6N-3" style="edgeStyle=orthogonalEdgeStyle;rounded=0;orthogonalLoop=1;jettySize=auto;html=1;entryX=0;entryY=0.5;entryDx=0;entryDy=0;" edge="1" parent="1" source="qNAi8replDsRPzOtBU6N-1" target="qNAi8replDsRPzOtBU6N-24">
          <mxGeometry relative="1" as="geometry">
            <mxPoint x="270" y="285" as="targetPoint" />
          </mxGeometry>
        </mxCell>
        <mxCell id="qNAi8replDsRPzOtBU6N-1" value="" style="verticalLabelPosition=bottom;verticalAlign=top;html=1;shadow=0;dashed=0;strokeWidth=1;shape=mxgraph.android.phone2;strokeColor=#666666;fillColor=#c5c4c4;fontColor=#333333;" vertex="1" parent="1">
          <mxGeometry x="330" y="250" width="80" height="170" as="geometry" />
        </mxCell>
        <mxCell id="qNAi8replDsRPzOtBU6N-21" value="" style="shape=image;verticalLabelPosition=bottom;labelBackgroundColor=default;verticalAlign=top;aspect=fixed;imageAspect=0;image=data:image/png,iVBORw0KGgoAAAANSUhEUgAAAGQAAABkCAYAAABw4pVUAAAMP2lDQ1BJQ0MgUHJvZmlsZQAASImVVwdYU8kWnluSkEBCCSAgJfQmiEgJICWEFnpHEJWQBAglxkBQsaOLCq5dLGBDV0UUrIBYUMTOotj7YkFBWRcLduVNCui6r3zvfN/c+99/zvznzLlzywCgfoIrFueiGgDkiQokscH+jLHJKQxSN0AAAZDhkcbl5YtZ0dHhANrg+e/27gb0g3bVQab1z/7/app8QT4PACQa4nR+Pi8P4oMA4JU8saQAAKKMN59SIJZh2IC2BCYI8UIZzlTgShlOV+C9cp/4WDbErQCoqHG5kkwAaJchzyjkZUINWh/ETiK+UASAOgNin7y8SXyI0yC2gT5iiGX6zPQfdDL/ppk+pMnlZg5hxVzkphIgzBfncqf9n+X435aXKx2MYQWbWpYkJFY2Z1i3WzmTwmRYDeJeUXpkFMRaEH8Q8uX+EKOULGlIgsIfNeTls2HNgC7ETnxuQBjEhhAHiXIjw5V8eoYwiAMxXCHoVGEBJx5iPYgXCvID45Q+myWTYpWx0PoMCZul5M9xJfK4slgPpDkJLKX+6ywBR6mP0Yqy4pMgpkBsUShMjISYBrFjfk5cmNJnTFEWO3LQRyKNleVvAXGsQBTsr9DHCjMkQbFK/9K8/MH5YpuzhJxIJd5fkBUfoqgP1srjyvOHc8EuC0SshEEdQf7Y8MG58AUBgYq5Y90CUUKcUueDuMA/VjEWp4hzo5X+uJkgN1jGm0Hskl8YpxyLJxbABanQxzPEBdHxijzxomxuaLQiH3wZCAdsEAAYQApbOpgEsoGwvbehF14peoIAF0hAJhAAByUzOCJJ3iOCxzhQBP6ESADyh8b5y3sFoBDyX4dYxdEBZMh7C+UjcsBTiPNAGMiF11L5KNFQtETwBDLCf0TnwsaD+ebCJuv/9/wg+51hQSZcyUgHIzLUBz2JgcQAYggxiGiLG+A+uBceDo9+sDnjTNxjcB7f/QlPCR2ER4TrhE7C7YnCYslPWUaATqgfpKxF+o+1wK2gpivuj3tDdaiM6+IGwAF3gXFYuC+M7ApZtjJvWVUYP2n/bQY/3A2lH9mJjJKHkf3INj+PpNnRXIdUZLX+sT6KXNOH6s0e6vk5PvuH6vPhOexnT2whdgA7i53EzmNHsQbAwJqxRqwNOybDQ6vriXx1DUaLleeTA3WE/4g3eGdllcx3qnHqcfqi6CsQTJW9owF7kniaRJiZVcBgwS+CgMER8RxHMJydnF0AkH1fFK+vNzHy7wai2/adm/cHAN7NAwMDR75zoc0A7HOHj//h75wNE346VAE4d5gnlRQqOFx2IMC3hDp80vSBMTAHNnA+zsANeAE/EAhCQRSIB8lgAsw+C65zCZgCZoC5oASUgWVgNVgPNoGtYCfYA/aDBnAUnARnwEVwGVwHd+Hq6QIvQB94Bz4jCEJCqAgd0UdMEEvEHnFGmIgPEoiEI7FIMpKGZCIiRIrMQOYhZcgKZD2yBalG9iGHkZPIeaQDuY08RHqQ18gnFEPVUG3UCLVCR6JMlIWGofHoeDQTnYwWofPRJehatArdjdajJ9GL6HW0E32B9mMAU8V0MVPMAWNibCwKS8EyMAk2CyvFyrEqrBZrgvf5KtaJ9WIfcSJOxxm4A1zBIXgCzsMn47Pwxfh6fCdej7fiV/GHeB/+jUAlGBLsCZ4EDmEsIZMwhVBCKCdsJxwinIbPUhfhHZFI1CVaE93hs5hMzCZOJy4mbiDWEU8QO4iPif0kEkmfZE/yJkWRuKQCUglpHWk3qZl0hdRF+qCiqmKi4qwSpJKiIlIpVilX2aVyXOWKyjOVz2QNsiXZkxxF5pOnkZeSt5GbyJfIXeTPFE2KNcWbEk/JpsylrKXUUk5T7lHeqKqqmql6qMaoClXnqK5V3at6TvWh6kc1LTU7NbZaqppUbYnaDrUTarfV3lCpVCuqHzWFWkBdQq2mnqI+oH6g0WmONA6NT5tNq6DV067QXqqT1S3VWeoT1IvUy9UPqF9S79Uga1hpsDW4GrM0KjQOa9zU6Neka47SjNLM01ysuUvzvGa3FknLSitQi681X2ur1imtx3SMbk5n03n0efRt9NP0Lm2itrU2Rztbu0x7j3a7dp+Olo6LTqLOVJ0KnWM6nbqYrpUuRzdXd6nuft0bup+GGQ1jDRMMWzSsdtiVYe/1huv56Qn0SvXq9K7rfdJn6Afq5+gv12/Qv2+AG9gZxBhMMdhocNqgd7j2cK/hvOGlw/cPv2OIGtoZxhpON9xq2GbYb2RsFGwkNlpndMqo11jX2M8423iV8XHjHhO6iY+J0GSVSbPJc4YOg8XIZaxltDL6TA1NQ0ylpltM200/m1mbJZgVm9WZ3TenmDPNM8xXmbeY91mYWERYzLCosbhjSbZkWmZZrrE8a/neytoqyWqBVYNVt7WeNce6yLrG+p4N1cbXZrJNlc01W6It0zbHdoPtZTvUztUuy67C7pI9au9mL7TfYN8xgjDCY4RoRNWImw5qDiyHQocah4eOuo7hjsWODY4vR1qMTBm5fOTZkd+cXJ1ynbY53R2lNSp0VPGoplGvne2cec4VztdGU0cHjZ49unH0Kxd7F4HLRpdbrnTXCNcFri2uX93c3SRutW497hbuae6V7jeZ2sxo5mLmOQ+Ch7/HbI+jHh893TwLPPd7/uXl4JXjtcure4z1GMGYbWMee5t5c723eHf6MHzSfDb7dPqa+nJ9q3wf+Zn78f22+z1j2bKyWbtZL/2d/CX+h/zfsz3ZM9knArCA4IDSgPZArcCEwPWBD4LMgjKDaoL6gl2DpwefCCGEhIUsD7nJMeLwONWcvlD30JmhrWFqYXFh68MehduFS8KbItCI0IiVEfciLSNFkQ1RIIoTtTLqfrR19OToIzHEmOiYipinsaNiZ8SejaPHTYzbFfcu3j9+afzdBJsEaUJLonpiamJ14vukgKQVSZ1jR46dOfZiskGyMLkxhZSSmLI9pX9c4LjV47pSXVNLUm+Mtx4/dfz5CQYTciccm6g+kTvxQBohLSltV9oXbhS3itufzkmvTO/jsXlreC/4fvxV/B6Bt2CF4FmGd8aKjO5M78yVmT1ZvlnlWb1CtnC98FV2SPam7Pc5UTk7cgZyk3Lr8lTy0vIOi7REOaLWScaTpk7qENuLS8Sdkz0nr57cJwmTbM9H8sfnNxZowx/5NqmN9Bfpw0KfworCD1MSpxyYqjlVNLVtmt20RdOeFQUV/TYdn86b3jLDdMbcGQ9nsmZumYXMSp/VMtt89vzZXXOC5+ycS5mbM/f3YqfiFcVv5yXNa5pvNH/O/Me/BP9SU0IrkZTcXOC1YNNCfKFwYfui0YvWLfpWyi+9UOZUVl72ZTFv8YVfR/269teBJRlL2pe6Ld24jLhMtOzGct/lO1doriha8XhlxMr6VYxVpaverp64+ny5S/mmNZQ10jWda8PXNq6zWLds3Zf1WeuvV/hX1FUaVi6qfL+Bv+HKRr+NtZuMNpVt+rRZuPnWluAt9VVWVeVbiVsLtz7dlrjt7G/M36q3G2wv2/51h2hH587Yna3V7tXVuwx3La1Ba6Q1PbtTd1/eE7Cnsdahdkudbl3ZXrBXuvf5vrR9N/aH7W85wDxQe9DyYOUh+qHSeqR+Wn1fQ1ZDZ2NyY8fh0MMtTV5Nh444Htlx1PRoxTGdY0uPU47PPz7QXNTcf0J8ovdk5snHLRNb7p4ae+paa0xr++mw0+fOBJ05dZZ1tvmc97mj5z3PH77AvNBw0e1ifZtr26HfXX8/1O7WXn/J/VLjZY/LTR1jOo5f8b1y8mrA1TPXONcuXo+83nEj4catm6k3O2/xb3Xfzr396k7hnc9359wj3Cu9r3G//IHhg6o/bP+o63TrPPYw4GHbo7hHdx/zHr94kv/kS9f8p9Sn5c9MnlV3O3cf7Qnqufx83POuF+IXn3tL/tT8s/KlzcuDf/n91dY3tq/rleTVwOvFb/Tf7Hjr8ralP7r/wbu8d5/fl37Q/7DzI/Pj2U9Jn559nvKF9GXtV9uvTd/Cvt0byBsYEHMlXPmvAAYbmpEBwOsdAFCTAaDD/RllnGL/JzdEsWeVI/CfsGKPKDc3AGrh/3tML/y7uQnA3m1w+wX11VMBiKYCEO8B0NGjh9rgXk2+r5QZEe4DNgd+Tc9LB//GFHvOH/L++Qxkqi7g5/O/AF35fB/Z6k0uAAAAOGVYSWZNTQAqAAAACAABh2kABAAAAAEAAAAaAAAAAAACoAIABAAAAAEAAABkoAMABAAAAAEAAABkAAAAAAxz/HsAAAg/SURBVHgB7V19bBRFFJ+ZuyugBDWIGhIjETSiRoOARhDpByhN74pRqyQG+MNEYwhK9A8htLC0FJDEKKJGRSP+pcGI0mtq+Oi1EfAT1BA+FCMS1ACCyJd83e08355Zenfefpy33Zkmb5Nmd+a9nffe77czszM3O2WMDkKAECAECAFCgBAgBAgBQoAQIAQIAUKAECAECAFCoG8gwHVzc0GyqkYy/hA6tqMlnnqTcQaB+giMN7VXP4mF3iYYfNSc6OoMtPwyC9OKkKa2qomSsxRnXFhxIXbPtyY6l5cZY97tjcmqeYzxJf+WD5IJXtVal/osT0lhIhu4Qvt5poGzcTYZlgArh2G0T7o+T6mMRNO6SaOw1EV2EVlbko2z0zqc9SJEwkasFrlN1ICMNF8LAqjZHbX9pJDvYVmxi+WhLcHRpkaHVk2WhQs2KavxKZ6ZixHWnEda46kP7TzDMAQbtfWadMQcxpm4BKR5mSXjInICmDwTMyP72XfjD6GetO9pSlYvRabn2umsPuOvtCQ6n8nNU32tHSHzOiYMiZjRPQjv4B5w4CAINptJqAQmxnJgt3PO+vfIi16dRTZ2CGBfA4f9GCj2RTxia3IJeyNi4CgjkTxj5+lw1o4QC5TGtprHGYe3ew8gMLFmTcDa8UXv2fh/JWvVh9ghXIjJLfiO9aedDvqMT+HPWNOOBl1uEOVpVUOsviE9ZvNcLuUCxnm/IAJ0KgOAncPXuEWx7fcuz+1rnPTDyteGEKOjdlDaPPsBNiW1YQVv2UFiOtJwftryqVtPhWnXyZYWhMxbWzNYRGE9dtSjnRztzXzJ5DcVsX5TjCnrj/WmHT9lK+9DjK7K/pEKWKeKDAskgW9umfPnP7F88QNab+ooJyR9WqzEoeB4xyCBvQAg78amZQaOI0ruiK17svdiGTjyd56GEWJC+jR7ydGPkARKmyx8vY3j623SKVYc5HW1JrqrbXljsmYWtvqv2mk/Zw4wq6W+63VbtzFZ3Y3XE+103tkauQuobY53rc/LDzGhrIY8sW10jIN80S1W7OB/K5D/XpD2TErOf81TklBYZo8YJ7cA+MvYdEV7MsO9UkbI1YcufxQnkm50Cxcf2PuNdZOHWjrWXBTWjqfc9IvJcD53RsOahuwI3VhXOQI7jHgxPTsPm7ib0qdEg50O+6ysyWpsq/oKxxp3egWMAB3Hx/ZLnPYYieOG67z0i8mxD/kJXxp+wbJwNpkNLKZTkPf54kTKuV8rUA4yqYQQ4+PKYZmI2IcAK7HvCSBWzSgXw4zEpgOeugErKGmyzKiYpC0ZFsD4oGSYrAkYa1/FKSFEAh/ryzuFSviG59mc9oZ7SgjhHEb0RjCBlsnZ8EDL81mYktc7IfkyMwJv+PRRiVrEjBxXYpiMEgKEACHQdxAIbhyAi6hwnqgKB193CM7ORbjoMOKb9hWDIvsTrYAri8m0yZP86OL6zneK+dPYUT2cm6xWAusfEXx7c11nN74qY+jlH4EQMrf9niuiMrYWR96Vtks4Os5wAc2L410tdp59np+s3omGb7HTOp4R3V2tidSthb7hQ7cQp3CachdMoE4qwy88vCy+5a9C/VLTgbz2CqhYnUuG5QROVUQZ8Ob5yZrHSnVKV/35bdXT0TejgAzL3eoY6/eudVHuUTYhjcnJN2Ah9c6OwHPOsr4l4cCfdfIYAKZaTZmT3G9+2YQAZG52NwZaN03uvudLQUjXWCED/2ni8kvwTpVNCC5WrnAzg9NCrnK3e3WTecbigYWfeMonxI8V0vGNABHiG6pwFImQcHD2bYUI8Q1VOIpESDg4+7ZChPiGKhxFIiQcnH1bIUJ8QxWOIhESDs6+rRAhvqEKR5EICQdn31aIEN9QhaNIhISDs28rRIhvqMJRJELCwdm3FSLEN1ThKBIh4eDs20rZhODvzGkPa15yj9v1EVsrady88YGF2+1ZWdmEmCbb62oF2I+u8r4k5O6xmMz8odxwyiZk6QOdu3ENk+OubLg2a2W5TupyP4Ll8sEpbFqa6FZPiAUWxNLTmeTf5wGHXyHhbjwrWuq6VuXl9+FEdstBYEUeMPg2KsBas1X2UXYNsTxYMmXzweggc6y1rxUmrS9rDawZY5ckUnOCWmJp2VF+4HLRxfWpp0FK64MjA/8wVt4QHQh3GXXdh4LwL5ClpKU60peXkpYaa6n6gdSQUo2SvjMCRIgzNkokSgjBLfrwxUzvQ5WPSgjBzv+w3nSgdxwC6aRLjVMJIQJgbamOhq7PuRIflRByeOjJVcDlxtBB9m9wQ/RSqWT8pOS118LFWNNQkR5wbA4OK6dh8lpssyM2XtjBDMAPftw2EzOxFzpp6xc9czYI8y+WWaiD81LnMPizdj42o7hTKRzA3YDePzL0xIq3xmxXMgenjBAbiGJn/GzMwPyFxWRWHhJW9HOzXH0fY51FuMGMkXuPDtdKmiwdAtfVByJEM2aIECJEMwQ0c4dqCBGiGQKauUM1hAjRDAHN3KEaQoR4IwCcX/DQ8pIzLr2WJ8F5DxtKxHrWECl3uaGB8z073eRZGQdXHdxNylXuWX4vKWhJyJGhJztwo8zdDjGnUbbCQXYxGzfwX+G0sM2aC4sNlJ9eVNboQktCrJlW3Ia8HgHFfw7WcyCQpznnM1riXdt7cotftU7t3ob/Em8m/seWv3M1smRwUW9UdbuuQsy9J8xrLWd7bQCsDfuHHLxsCv58N1JweTRyIdZuPLjhD1vu52ysve+qTNRM4PT6YJwn3mPVDF3J8BMP6RAChAAhQAgQAoQAIUAIEAKEACFACBAChAAhQAgQArog8A85CDl/6/U/GAAAAABJRU5ErkJggg==;" vertex="1" parent="1">
          <mxGeometry x="290" y="210" width="40" height="40" as="geometry" />
        </mxCell>
        <mxCell id="qNAi8replDsRPzOtBU6N-22" value="" style="shape=image;verticalLabelPosition=bottom;labelBackgroundColor=default;verticalAlign=top;aspect=fixed;imageAspect=0;image=data:image/png,iVBORw0KGgoAAAANSUhEUgAAAGQAAABkCAYAAABw4pVUAAAMP2lDQ1BJQ0MgUHJvZmlsZQAASImVVwdYU8kWnluSkEBCCSAgJfQmiEgJICWEFnpHEJWQBAglxkBQsaOLCq5dLGBDV0UUrIBYUMTOotj7YkFBWRcLduVNCui6r3zvfN/c+99/zvznzLlzywCgfoIrFueiGgDkiQokscH+jLHJKQxSN0AAAZDhkcbl5YtZ0dHhANrg+e/27gb0g3bVQab1z/7/app8QT4PACQa4nR+Pi8P4oMA4JU8saQAAKKMN59SIJZh2IC2BCYI8UIZzlTgShlOV+C9cp/4WDbErQCoqHG5kkwAaJchzyjkZUINWh/ETiK+UASAOgNin7y8SXyI0yC2gT5iiGX6zPQfdDL/ppk+pMnlZg5hxVzkphIgzBfncqf9n+X435aXKx2MYQWbWpYkJFY2Z1i3WzmTwmRYDeJeUXpkFMRaEH8Q8uX+EKOULGlIgsIfNeTls2HNgC7ETnxuQBjEhhAHiXIjw5V8eoYwiAMxXCHoVGEBJx5iPYgXCvID45Q+myWTYpWx0PoMCZul5M9xJfK4slgPpDkJLKX+6ywBR6mP0Yqy4pMgpkBsUShMjISYBrFjfk5cmNJnTFEWO3LQRyKNleVvAXGsQBTsr9DHCjMkQbFK/9K8/MH5YpuzhJxIJd5fkBUfoqgP1srjyvOHc8EuC0SshEEdQf7Y8MG58AUBgYq5Y90CUUKcUueDuMA/VjEWp4hzo5X+uJkgN1jGm0Hskl8YpxyLJxbABanQxzPEBdHxijzxomxuaLQiH3wZCAdsEAAYQApbOpgEsoGwvbehF14peoIAF0hAJhAAByUzOCJJ3iOCxzhQBP6ESADyh8b5y3sFoBDyX4dYxdEBZMh7C+UjcsBTiPNAGMiF11L5KNFQtETwBDLCf0TnwsaD+ebCJuv/9/wg+51hQSZcyUgHIzLUBz2JgcQAYggxiGiLG+A+uBceDo9+sDnjTNxjcB7f/QlPCR2ER4TrhE7C7YnCYslPWUaATqgfpKxF+o+1wK2gpivuj3tDdaiM6+IGwAF3gXFYuC+M7ApZtjJvWVUYP2n/bQY/3A2lH9mJjJKHkf3INj+PpNnRXIdUZLX+sT6KXNOH6s0e6vk5PvuH6vPhOexnT2whdgA7i53EzmNHsQbAwJqxRqwNOybDQ6vriXx1DUaLleeTA3WE/4g3eGdllcx3qnHqcfqi6CsQTJW9owF7kniaRJiZVcBgwS+CgMER8RxHMJydnF0AkH1fFK+vNzHy7wai2/adm/cHAN7NAwMDR75zoc0A7HOHj//h75wNE346VAE4d5gnlRQqOFx2IMC3hDp80vSBMTAHNnA+zsANeAE/EAhCQRSIB8lgAsw+C65zCZgCZoC5oASUgWVgNVgPNoGtYCfYA/aDBnAUnARnwEVwGVwHd+Hq6QIvQB94Bz4jCEJCqAgd0UdMEEvEHnFGmIgPEoiEI7FIMpKGZCIiRIrMQOYhZcgKZD2yBalG9iGHkZPIeaQDuY08RHqQ18gnFEPVUG3UCLVCR6JMlIWGofHoeDQTnYwWofPRJehatArdjdajJ9GL6HW0E32B9mMAU8V0MVPMAWNibCwKS8EyMAk2CyvFyrEqrBZrgvf5KtaJ9WIfcSJOxxm4A1zBIXgCzsMn47Pwxfh6fCdej7fiV/GHeB/+jUAlGBLsCZ4EDmEsIZMwhVBCKCdsJxwinIbPUhfhHZFI1CVaE93hs5hMzCZOJy4mbiDWEU8QO4iPif0kEkmfZE/yJkWRuKQCUglpHWk3qZl0hdRF+qCiqmKi4qwSpJKiIlIpVilX2aVyXOWKyjOVz2QNsiXZkxxF5pOnkZeSt5GbyJfIXeTPFE2KNcWbEk/JpsylrKXUUk5T7lHeqKqqmql6qMaoClXnqK5V3at6TvWh6kc1LTU7NbZaqppUbYnaDrUTarfV3lCpVCuqHzWFWkBdQq2mnqI+oH6g0WmONA6NT5tNq6DV067QXqqT1S3VWeoT1IvUy9UPqF9S79Uga1hpsDW4GrM0KjQOa9zU6Neka47SjNLM01ysuUvzvGa3FknLSitQi681X2ur1imtx3SMbk5n03n0efRt9NP0Lm2itrU2Rztbu0x7j3a7dp+Olo6LTqLOVJ0KnWM6nbqYrpUuRzdXd6nuft0bup+GGQ1jDRMMWzSsdtiVYe/1huv56Qn0SvXq9K7rfdJn6Afq5+gv12/Qv2+AG9gZxBhMMdhocNqgd7j2cK/hvOGlw/cPv2OIGtoZxhpON9xq2GbYb2RsFGwkNlpndMqo11jX2M8423iV8XHjHhO6iY+J0GSVSbPJc4YOg8XIZaxltDL6TA1NQ0ylpltM200/m1mbJZgVm9WZ3TenmDPNM8xXmbeY91mYWERYzLCosbhjSbZkWmZZrrE8a/neytoqyWqBVYNVt7WeNce6yLrG+p4N1cbXZrJNlc01W6It0zbHdoPtZTvUztUuy67C7pI9au9mL7TfYN8xgjDCY4RoRNWImw5qDiyHQocah4eOuo7hjsWODY4vR1qMTBm5fOTZkd+cXJ1ynbY53R2lNSp0VPGoplGvne2cec4VztdGU0cHjZ49unH0Kxd7F4HLRpdbrnTXCNcFri2uX93c3SRutW497hbuae6V7jeZ2sxo5mLmOQ+Ch7/HbI+jHh893TwLPPd7/uXl4JXjtcure4z1GMGYbWMee5t5c723eHf6MHzSfDb7dPqa+nJ9q3wf+Zn78f22+z1j2bKyWbtZL/2d/CX+h/zfsz3ZM9knArCA4IDSgPZArcCEwPWBD4LMgjKDaoL6gl2DpwefCCGEhIUsD7nJMeLwONWcvlD30JmhrWFqYXFh68MehduFS8KbItCI0IiVEfciLSNFkQ1RIIoTtTLqfrR19OToIzHEmOiYipinsaNiZ8SejaPHTYzbFfcu3j9+afzdBJsEaUJLonpiamJ14vukgKQVSZ1jR46dOfZiskGyMLkxhZSSmLI9pX9c4LjV47pSXVNLUm+Mtx4/dfz5CQYTciccm6g+kTvxQBohLSltV9oXbhS3itufzkmvTO/jsXlreC/4fvxV/B6Bt2CF4FmGd8aKjO5M78yVmT1ZvlnlWb1CtnC98FV2SPam7Pc5UTk7cgZyk3Lr8lTy0vIOi7REOaLWScaTpk7qENuLS8Sdkz0nr57cJwmTbM9H8sfnNxZowx/5NqmN9Bfpw0KfworCD1MSpxyYqjlVNLVtmt20RdOeFQUV/TYdn86b3jLDdMbcGQ9nsmZumYXMSp/VMtt89vzZXXOC5+ycS5mbM/f3YqfiFcVv5yXNa5pvNH/O/Me/BP9SU0IrkZTcXOC1YNNCfKFwYfui0YvWLfpWyi+9UOZUVl72ZTFv8YVfR/269teBJRlL2pe6Ld24jLhMtOzGct/lO1doriha8XhlxMr6VYxVpaverp64+ny5S/mmNZQ10jWda8PXNq6zWLds3Zf1WeuvV/hX1FUaVi6qfL+Bv+HKRr+NtZuMNpVt+rRZuPnWluAt9VVWVeVbiVsLtz7dlrjt7G/M36q3G2wv2/51h2hH587Yna3V7tXVuwx3La1Ba6Q1PbtTd1/eE7Cnsdahdkudbl3ZXrBXuvf5vrR9N/aH7W85wDxQe9DyYOUh+qHSeqR+Wn1fQ1ZDZ2NyY8fh0MMtTV5Nh444Htlx1PRoxTGdY0uPU47PPz7QXNTcf0J8ovdk5snHLRNb7p4ae+paa0xr++mw0+fOBJ05dZZ1tvmc97mj5z3PH77AvNBw0e1ifZtr26HfXX8/1O7WXn/J/VLjZY/LTR1jOo5f8b1y8mrA1TPXONcuXo+83nEj4catm6k3O2/xb3Xfzr396k7hnc9359wj3Cu9r3G//IHhg6o/bP+o63TrPPYw4GHbo7hHdx/zHr94kv/kS9f8p9Sn5c9MnlV3O3cf7Qnqufx83POuF+IXn3tL/tT8s/KlzcuDf/n91dY3tq/rleTVwOvFb/Tf7Hjr8ralP7r/wbu8d5/fl37Q/7DzI/Pj2U9Jn559nvKF9GXtV9uvTd/Cvt0byBsYEHMlXPmvAAYbmpEBwOsdAFCTAaDD/RllnGL/JzdEsWeVI/CfsGKPKDc3AGrh/3tML/y7uQnA3m1w+wX11VMBiKYCEO8B0NGjh9rgXk2+r5QZEe4DNgd+Tc9LB//GFHvOH/L++Qxkqi7g5/O/AF35fB/Z6k0uAAAAOGVYSWZNTQAqAAAACAABh2kABAAAAAEAAAAaAAAAAAACoAIABAAAAAEAAABkoAMABAAAAAEAAABkAAAAAAxz/HsAAAbbSURBVHgB7Z1ZjBRVFIabcRcRt7hmmLgggqhIVBxEUEiM6wP64INvvMiD0fhgNMblVY1KUBKNiqLGBJeogZjgA47RuCMISgxq0BHFfcYFRURHvz9Dk7Kne6pudZ2qul33JH+6p+vWuef8/63lLlVTqwULDAQGWjMwpvWmjt9yCBleAuaC6WAsOAEEy5mBmdT3LPgT/BvB33zvAsFyYmAa9awGUREav++VUyyVrmY/sl8MdAQ0ChD9e0elWcop+UnUsyFGiLooX+YUU2Wr6SXzHxKKIVFWlYGpPcsQhEEMc3YRvK+D7zUOZUNRBwamUvZnUD8VJf2c7VBHKJqQgXGU2wSSilAv9w37dOrZIiF1NsUeSiGGRLnDJpxqe51F+kOg3uqTfup2t7va1Nlk/1YKMSTagzbhVNvrhSnFGGS/I6pNnU32K1MKcrVNONX2qhYeNyzS7Hqygv2qPNpt1moW4LkZ4aP9tpF9DjaLqOKOn3AUZDPleyrOmWn6ax0E0UDj0abRBOe1gYSCPE45zQoGM2ZAHbvRrhf9bJ9vHENwH2Hgd743E0TXimvB/pGypf9a1ICa6tWo7ARwKBgPfgMapVWL/ghozjuJfU2hiUBHivZ7A7wAXgf/gDjT3dYpQLfPB4EDgURWp1GxrAfbQceZEr4O9IFtoFmrrv+2k+3rwJ1gDtgDtDJdpEVq0salsleBJ4FmCet1tvpULO+DW8EU4L1pic2LQIm1Sjrudw2P3w9mgy7gapqouhw8DxpXm8TV3bi9Dx8XgzHAKzuOaJ8DQ6AxqXb+3oq/JeA8MNoqEW2bB5aCNBNWcTG+iV81tkzNQmX5XAjuAgdkGu1IZ2rtOrV9Bn4EumYcBtQYzgDWF3Q1tvvATUDXsNKZLogvgbjW1Wnb3yNnNYJSmS6ua0GnkZ00n5/Ivbcsiqh1fFVhMeqi/QoHc4sW5XAC2BTE2H1mUB/m7KJE0UVbHad6Cwmfw1x8CyfdRYiyLIgxojHqCLkRjNaZZXP2pt5uOCL+z0EfnPRkT3W8Rw2DWHS2fBZYQzF7x1NnU+Jh3PpMXtax3wMfFp3sROqdSCn1iLNOyld/y4sUQ4ppHMlX8rKOWz10PRBUmOk2V/MWWSfmoz+NXU3OWokuR4eXUl6iBKvVFkHCx0UT8QwB+Nias45Z41YmDdPlCNFdhOYXgg3PsWwrmogpBJB1S/PRn+4wNZhqYi5HyAyTCPxzqgmxzVZhuwgyySoIz/y+YhmviyDqEAar1V6zJMFFkAmWgXjk+1PLWF0E0eKBYLXaFksSXATRArOqm0Yp/rAkwUWQQsdsLElw8G0+6eQiSGHDyw6EWRfdx7oCF0GsY/HBv46Q8ZaBughieu60TDJj36b9MRdBBjJOzFd3J1kG7iLIoGUgHvk+1zJWF0H0SECw4TeZmt3guAhiNqDmmcpHEe9ZVjG7CPKFVRAe+r3GKmYXQQqfrrQiIYXfK9nnmBT7xe7iIojmAYINM6Cns24vAxlbCcLHWT6LmIfg4pysRXE5QlT3O1kH4LE/3WnplYKZLnZwFeRVjwm0CF3rDJ4G5oOOrYKfygaLw993n3e3Isz6dx2m4TrSvFE+ADdtHylpHBxPxWdaK++hfz2GfRp4Gehx7dxsHjX5foqxjF+Ps+mtEbmZ3ini8pJ7y+TL7HsFPPXmpcoiKiozGWWKbRVcJR6MdL3trQu+tP4lfMYyoGVDaiDm9jY1lKklljGWv+Cox0WJtEeI6ljsUlFFyz5F3v155a5bZr2Fp4wtswwxaZX8ya5itHOEqEK9mihYcwb0srSNzTfZ/ar3UYWe+8izhBqrOomF2EJqLcMpokwxPFKIErsq1WTNJ0GU3Y1S6381716ozaf2MrXQImO5vlAlIpWvDKLUPoCDpK+rjVBn8/VY3OrVREW2ziLr3knu022oTe/1hgoLclt62uz2VL9mdQVFeZecdXNTStN6Jb3poMjTR5516wUCE0upRCSoKyokyIJI3qX++lgFRNHgoTemZxK1jivP00eedeml0Ro68sr0tutOfMHyFvLq9kqJSLB6BKyTBiC/J5/Jkfy8/KoFdt+BPE8pFnXpoSXTUdzEk+8ZNAP15PWPXU7NwNcgPvqAzuMbwADQa2u3A73gQOtte8A0MBPoAZt2c/0QH5eBftAxNpZMlgGtHHdtwTvYZzm4ALh2wtQ30iiCngJzrVexPgrGgY61WWS2BiQh53PK3QyOBO2aRhLUyrU0R5NIcfVrsPB8UBk7nUzvBTr1/AI0QKdrzTqwBFwE2plmZveWpt71LUBLPyW65jEUw3qgdbozQLDAQGAgMBAYCAwEBgIDgYGOYOA//YlI70+neHAAAAAASUVORK5CYII=;" vertex="1" parent="1">
          <mxGeometry x="410" y="210" width="40" height="40" as="geometry" />
        </mxCell>
        <mxCell id="qNAi8replDsRPzOtBU6N-23" value="" style="ellipse;whiteSpace=wrap;html=1;gradientDirection=west;opacity=60;fillStyle=auto;fillColor=#dae8fc;strokeColor=#6c8ebf;" vertex="1" parent="1">
          <mxGeometry x="530" y="260" width="590" height="520" as="geometry" />
        </mxCell>
        <mxCell id="qNAi8replDsRPzOtBU6N-28" style="edgeStyle=orthogonalEdgeStyle;rounded=0;orthogonalLoop=1;jettySize=auto;html=1;entryX=0;entryY=0.5;entryDx=0;entryDy=0;" edge="1" parent="1" source="qNAi8replDsRPzOtBU6N-24" target="qNAi8replDsRPzOtBU6N-33">
          <mxGeometry relative="1" as="geometry">
            <mxPoint x="749.9999999999998" y="390" as="targetPoint" />
          </mxGeometry>
        </mxCell>
        <mxCell id="qNAi8replDsRPzOtBU6N-24" value="API Gateway" style="rounded=0;whiteSpace=wrap;html=1;fillColor=#dae8fc;strokeColor=#6c8ebf;" vertex="1" parent="1">
          <mxGeometry x="550" y="330" width="60" height="50" as="geometry" />
        </mxCell>
        <mxCell id="qNAi8replDsRPzOtBU6N-31" value="Google Cloud Bucket" style="ellipse;shape=cloud;whiteSpace=wrap;html=1;fillColor=#dae8fc;strokeColor=#6c8ebf;opacity=60;" vertex="1" parent="1">
          <mxGeometry x="770" y="22.19" width="170" height="140" as="geometry" />
        </mxCell>
        <mxCell id="qNAi8replDsRPzOtBU6N-32" value="" style="shape=image;verticalLabelPosition=bottom;labelBackgroundColor=default;verticalAlign=top;aspect=fixed;imageAspect=0;image=https://logos-world.net/wp-content/uploads/2021/02/Google-Cloud-Emblem.png;" vertex="1" parent="1">
          <mxGeometry x="920" y="52.19" width="150" height="84.38" as="geometry" />
        </mxCell>
        <mxCell id="qNAi8replDsRPzOtBU6N-43" style="edgeStyle=orthogonalEdgeStyle;rounded=0;orthogonalLoop=1;jettySize=auto;html=1;entryX=0.5;entryY=0;entryDx=0;entryDy=0;" edge="1" parent="1" source="qNAi8replDsRPzOtBU6N-33" target="qNAi8replDsRPzOtBU6N-39">
          <mxGeometry relative="1" as="geometry" />
        </mxCell>
        <mxCell id="qNAi8replDsRPzOtBU6N-33" value="Rust Service" style="rounded=0;whiteSpace=wrap;html=1;fillColor=#1e1e1e;opacity=50;" vertex="1" parent="1">
          <mxGeometry x="690" y="360" width="150" height="90" as="geometry" />
        </mxCell>
        <mxCell id="qNAi8replDsRPzOtBU6N-34" value="" style="shape=image;verticalLabelPosition=bottom;labelBackgroundColor=default;verticalAlign=top;aspect=fixed;imageAspect=0;image=https://raw.githubusercontent.com/rust-lang/rust-artwork/master/logo/rust-logo-128x128-blk-v2.png;" vertex="1" parent="1">
          <mxGeometry x="810" y="320" width="88" height="88" as="geometry" />
        </mxCell>
        <mxCell id="qNAi8replDsRPzOtBU6N-35" style="edgeStyle=orthogonalEdgeStyle;rounded=0;orthogonalLoop=1;jettySize=auto;html=1;entryX=0.55;entryY=0.95;entryDx=0;entryDy=0;entryPerimeter=0;" edge="1" parent="1" source="qNAi8replDsRPzOtBU6N-33" target="qNAi8replDsRPzOtBU6N-31">
          <mxGeometry relative="1" as="geometry">
            <Array as="points">
              <mxPoint x="765" y="220" />
              <mxPoint x="863" y="220" />
            </Array>
          </mxGeometry>
        </mxCell>
        <mxCell id="qNAi8replDsRPzOtBU6N-39" value="Docker Container&lt;br&gt;&lt;br&gt;&lt;br&gt;&lt;br&gt;&lt;br&gt;&lt;br&gt;&lt;br&gt;&lt;br&gt;" style="rounded=0;whiteSpace=wrap;html=1;fillColor=#0098f3;opacity=50;strokeColor=#005E96;" vertex="1" parent="1">
          <mxGeometry x="780" y="502" width="230" height="160" as="geometry" />
        </mxCell>
        <mxCell id="qNAi8replDsRPzOtBU6N-40" value="Python FastAPI Server" style="rounded=0;whiteSpace=wrap;html=1;fillColor=#d5e8d4;strokeColor=#82b366;" vertex="1" parent="1">
          <mxGeometry x="835" y="570" width="120" height="60" as="geometry" />
        </mxCell>
        <mxCell id="qNAi8replDsRPzOtBU6N-41" value="" style="shape=image;verticalLabelPosition=bottom;labelBackgroundColor=default;verticalAlign=top;aspect=fixed;imageAspect=0;image=data:image/png,iVBORw0KGgoAAAANSUhEUgAAAGQAAABkCAYAAABw4pVUAAAMP2lDQ1BJQ0MgUHJvZmlsZQAASImVVwdYU8kWnluSkEBCCSAgJfQmiEgJICWEFnpHEJWQBAglxkBQsaOLCq5dLGBDV0UUrIBYUMTOotj7YkFBWRcLduVNCui6r3zvfN/c+99/zvznzLlzywCgfoIrFueiGgDkiQokscH+jLHJKQxSN0AAAZDhkcbl5YtZ0dHhANrg+e/27gb0g3bVQab1z/7/app8QT4PACQa4nR+Pi8P4oMA4JU8saQAAKKMN59SIJZh2IC2BCYI8UIZzlTgShlOV+C9cp/4WDbErQCoqHG5kkwAaJchzyjkZUINWh/ETiK+UASAOgNin7y8SXyI0yC2gT5iiGX6zPQfdDL/ppk+pMnlZg5hxVzkphIgzBfncqf9n+X435aXKx2MYQWbWpYkJFY2Z1i3WzmTwmRYDeJeUXpkFMRaEH8Q8uX+EKOULGlIgsIfNeTls2HNgC7ETnxuQBjEhhAHiXIjw5V8eoYwiAMxXCHoVGEBJx5iPYgXCvID45Q+myWTYpWx0PoMCZul5M9xJfK4slgPpDkJLKX+6ywBR6mP0Yqy4pMgpkBsUShMjISYBrFjfk5cmNJnTFEWO3LQRyKNleVvAXGsQBTsr9DHCjMkQbFK/9K8/MH5YpuzhJxIJd5fkBUfoqgP1srjyvOHc8EuC0SshEEdQf7Y8MG58AUBgYq5Y90CUUKcUueDuMA/VjEWp4hzo5X+uJkgN1jGm0Hskl8YpxyLJxbABanQxzPEBdHxijzxomxuaLQiH3wZCAdsEAAYQApbOpgEsoGwvbehF14peoIAF0hAJhAAByUzOCJJ3iOCxzhQBP6ESADyh8b5y3sFoBDyX4dYxdEBZMh7C+UjcsBTiPNAGMiF11L5KNFQtETwBDLCf0TnwsaD+ebCJuv/9/wg+51hQSZcyUgHIzLUBz2JgcQAYggxiGiLG+A+uBceDo9+sDnjTNxjcB7f/QlPCR2ER4TrhE7C7YnCYslPWUaATqgfpKxF+o+1wK2gpivuj3tDdaiM6+IGwAF3gXFYuC+M7ApZtjJvWVUYP2n/bQY/3A2lH9mJjJKHkf3INj+PpNnRXIdUZLX+sT6KXNOH6s0e6vk5PvuH6vPhOexnT2whdgA7i53EzmNHsQbAwJqxRqwNOybDQ6vriXx1DUaLleeTA3WE/4g3eGdllcx3qnHqcfqi6CsQTJW9owF7kniaRJiZVcBgwS+CgMER8RxHMJydnF0AkH1fFK+vNzHy7wai2/adm/cHAN7NAwMDR75zoc0A7HOHj//h75wNE346VAE4d5gnlRQqOFx2IMC3hDp80vSBMTAHNnA+zsANeAE/EAhCQRSIB8lgAsw+C65zCZgCZoC5oASUgWVgNVgPNoGtYCfYA/aDBnAUnARnwEVwGVwHd+Hq6QIvQB94Bz4jCEJCqAgd0UdMEEvEHnFGmIgPEoiEI7FIMpKGZCIiRIrMQOYhZcgKZD2yBalG9iGHkZPIeaQDuY08RHqQ18gnFEPVUG3UCLVCR6JMlIWGofHoeDQTnYwWofPRJehatArdjdajJ9GL6HW0E32B9mMAU8V0MVPMAWNibCwKS8EyMAk2CyvFyrEqrBZrgvf5KtaJ9WIfcSJOxxm4A1zBIXgCzsMn47Pwxfh6fCdej7fiV/GHeB/+jUAlGBLsCZ4EDmEsIZMwhVBCKCdsJxwinIbPUhfhHZFI1CVaE93hs5hMzCZOJy4mbiDWEU8QO4iPif0kEkmfZE/yJkWRuKQCUglpHWk3qZl0hdRF+qCiqmKi4qwSpJKiIlIpVilX2aVyXOWKyjOVz2QNsiXZkxxF5pOnkZeSt5GbyJfIXeTPFE2KNcWbEk/JpsylrKXUUk5T7lHeqKqqmql6qMaoClXnqK5V3at6TvWh6kc1LTU7NbZaqppUbYnaDrUTarfV3lCpVCuqHzWFWkBdQq2mnqI+oH6g0WmONA6NT5tNq6DV067QXqqT1S3VWeoT1IvUy9UPqF9S79Uga1hpsDW4GrM0KjQOa9zU6Neka47SjNLM01ysuUvzvGa3FknLSitQi681X2ur1imtx3SMbk5n03n0efRt9NP0Lm2itrU2Rztbu0x7j3a7dp+Olo6LTqLOVJ0KnWM6nbqYrpUuRzdXd6nuft0bup+GGQ1jDRMMWzSsdtiVYe/1huv56Qn0SvXq9K7rfdJn6Afq5+gv12/Qv2+AG9gZxBhMMdhocNqgd7j2cK/hvOGlw/cPv2OIGtoZxhpON9xq2GbYb2RsFGwkNlpndMqo11jX2M8423iV8XHjHhO6iY+J0GSVSbPJc4YOg8XIZaxltDL6TA1NQ0ylpltM200/m1mbJZgVm9WZ3TenmDPNM8xXmbeY91mYWERYzLCosbhjSbZkWmZZrrE8a/neytoqyWqBVYNVt7WeNce6yLrG+p4N1cbXZrJNlc01W6It0zbHdoPtZTvUztUuy67C7pI9au9mL7TfYN8xgjDCY4RoRNWImw5qDiyHQocah4eOuo7hjsWODY4vR1qMTBm5fOTZkd+cXJ1ynbY53R2lNSp0VPGoplGvne2cec4VztdGU0cHjZ49unH0Kxd7F4HLRpdbrnTXCNcFri2uX93c3SRutW497hbuae6V7jeZ2sxo5mLmOQ+Ch7/HbI+jHh893TwLPPd7/uXl4JXjtcure4z1GMGYbWMee5t5c723eHf6MHzSfDb7dPqa+nJ9q3wf+Zn78f22+z1j2bKyWbtZL/2d/CX+h/zfsz3ZM9knArCA4IDSgPZArcCEwPWBD4LMgjKDaoL6gl2DpwefCCGEhIUsD7nJMeLwONWcvlD30JmhrWFqYXFh68MehduFS8KbItCI0IiVEfciLSNFkQ1RIIoTtTLqfrR19OToIzHEmOiYipinsaNiZ8SejaPHTYzbFfcu3j9+afzdBJsEaUJLonpiamJ14vukgKQVSZ1jR46dOfZiskGyMLkxhZSSmLI9pX9c4LjV47pSXVNLUm+Mtx4/dfz5CQYTciccm6g+kTvxQBohLSltV9oXbhS3itufzkmvTO/jsXlreC/4fvxV/B6Bt2CF4FmGd8aKjO5M78yVmT1ZvlnlWb1CtnC98FV2SPam7Pc5UTk7cgZyk3Lr8lTy0vIOi7REOaLWScaTpk7qENuLS8Sdkz0nr57cJwmTbM9H8sfnNxZowx/5NqmN9Bfpw0KfworCD1MSpxyYqjlVNLVtmt20RdOeFQUV/TYdn86b3jLDdMbcGQ9nsmZumYXMSp/VMtt89vzZXXOC5+ycS5mbM/f3YqfiFcVv5yXNa5pvNH/O/Me/BP9SU0IrkZTcXOC1YNNCfKFwYfui0YvWLfpWyi+9UOZUVl72ZTFv8YVfR/269teBJRlL2pe6Ld24jLhMtOzGct/lO1doriha8XhlxMr6VYxVpaverp64+ny5S/mmNZQ10jWda8PXNq6zWLds3Zf1WeuvV/hX1FUaVi6qfL+Bv+HKRr+NtZuMNpVt+rRZuPnWluAt9VVWVeVbiVsLtz7dlrjt7G/M36q3G2wv2/51h2hH587Yna3V7tXVuwx3La1Ba6Q1PbtTd1/eE7Cnsdahdkudbl3ZXrBXuvf5vrR9N/aH7W85wDxQe9DyYOUh+qHSeqR+Wn1fQ1ZDZ2NyY8fh0MMtTV5Nh444Htlx1PRoxTGdY0uPU47PPz7QXNTcf0J8ovdk5snHLRNb7p4ae+paa0xr++mw0+fOBJ05dZZ1tvmc97mj5z3PH77AvNBw0e1ifZtr26HfXX8/1O7WXn/J/VLjZY/LTR1jOo5f8b1y8mrA1TPXONcuXo+83nEj4catm6k3O2/xb3Xfzr396k7hnc9359wj3Cu9r3G//IHhg6o/bP+o63TrPPYw4GHbo7hHdx/zHr94kv/kS9f8p9Sn5c9MnlV3O3cf7Qnqufx83POuF+IXn3tL/tT8s/KlzcuDf/n91dY3tq/rleTVwOvFb/Tf7Hjr8ralP7r/wbu8d5/fl37Q/7DzI/Pj2U9Jn559nvKF9GXtV9uvTd/Cvt0byBsYEHMlXPmvAAYbmpEBwOsdAFCTAaDD/RllnGL/JzdEsWeVI/CfsGKPKDc3AGrh/3tML/y7uQnA3m1w+wX11VMBiKYCEO8B0NGjh9rgXk2+r5QZEe4DNgd+Tc9LB//GFHvOH/L++Qxkqi7g5/O/AF35fB/Z6k0uAAAAOGVYSWZNTQAqAAAACAABh2kABAAAAAEAAAAaAAAAAAACoAIABAAAAAEAAABkoAMABAAAAAEAAABkAAAAAAxz/HsAAAoKSURBVHgB7VxrbFxHFZ6Zu3acFNI0u+u8q/jRpBChqo0QoKoPqaC2UKnlT4RUQERUGD9qkjY8BC04PypBEJA6tUPa0AjxoyKoKJQCAkT6kAqVIIlaGpI4u1uXOoV4d90Yx7F3vTuHbxyvH7t3985e77XvJnP/3DszZ+ac+3133ucOY+YyCBgEDAIGAYOAQcAgYBAwCBgEDAIGAYOAQcA/CHD/mFKeJRt7BlcLZrVwYmttc3KKS7Keebvjunds030aWZ2EHCaraTB5knG2uRSuRHRuvGZi03stay+VkvNTmvCTMbq2NA7FG53IUGVxztctm1hyk265fpCrSkJExqrVBo/kEm1ZHwhWJSE+wM0zEwwhnkHrrmBDiDvcPMtlCPEMWncFVyUhnJPUfd1yZHXL9FKuKgkZS431M0YXNIAZI5k9pSHnG5HqnBgCvube+B1E/HFGbIUtmsQuEpd7Yh31v7dNN5EGAR0EPKshWw5T7Uhi+Bo7I2oz8UuRzhtS+WnN3cnl6YBl5ceLFFH/zusKmig3OvLL9lvYE0KaeuKPEuNPoHDbWTIxymBZ4/vRttDjCpBN+xPrJNHv0ASVWuboI0veF/tq/VmVp1wdKk81XBXv1NcfHF6Jdv0HxchQoHDGA5B5rKlnsFmFQcYuBzKU2CaWFd9VD250qHzVcFWckLrxzBqs6hU0O3ZgcMnXq3iQsc4uPT+OOJuUd6Mjvyy/hitOiF9ftFrsMoT4jKmAz+ypCnPU6G48kWwZs9I/q/Tml6khLj6BVDy5G4OS7rqJmtPN+5J3uyiiaBZDSFFo7BOaf5r8MEaFj6pUDN03YDXgD429ycnRn32O8mIrT4hkw9omBGhSFvOS/2nloamyXejQKl9HKJvdCyJqpkUR4ES7G5+K/2g6bh4PFSck0hkcgCfI8442ETsaOR9+Q8kJLg4SY6Ol8iA9ZUm+X8m40VGqbN20xt74Z4iJT9nJg5ZHmnuSO+3SyonzZKbOukg01yduA9T1dsZISUPXJ4KvvNzFM7n0zfviazF9/xgXmDTmXWgiskTWsTkuPS505BVbdrChN/GSIHZnsYxqBQIf122RtuDrxWSc4r0hxElrFaY3Hhi6nk9k+1XH4WD+P1cEgluPtfAJBznb5IKv0U6qqTfxACN5F6NCbw/4PmWYRa/FWkPPwVi0LIy5cWLzo47ZWPBM9m4NMlSWjwxPJD+H+y9m59d9dmIb+w6JzxM5F47FxB2x9uCTzIUTmy915CHY1JPYi6iv5UXbBvFVHo+1h7baJjpEOnfqxO5xKONyssx+Wj24cmLzoY7Cd+Y3FMbZx+Arv2XjvsSN9qmlYx0JAdtaTmlkiUk5N05sftRRCBttKIwrHmNZdHvx1OIpWn1I8exXTwrmGmPk2J/P4EEkHmzsSa7hlG3AfsNyTCM/qFLRtF9ADXqPOJ1ikh2NdYT7ZnIxZgiZjUaJZwB5sURyQRJnkzXkdsbnNkK5TptjLwFEsaanEv24PZOZsHrVruhc6YJiTcQMAvLdmecKPnG2Edw8YdVkzzT1JO8xhOhiy8VRXVFXcpxhEk3dGoRg0KtxcYnmEVc5jmkzsv7Tkf/KlmB/wdamFhb5eXXD6KIOORKCtvOEToGYwB5Xcm6c2PyoI/+d+1pD52Dni/nxFQtL9p9lo5lux05dLhvZGxj7wCqS/FYotyeQs78H6uRuZdzAIxvG4MT2AL4lRye2aOeauMrjRx3KrvxLWPJ7lOX3ac7Y87OXDGME99ibX189ig7eXDoI3NlFgYFw4l5J7Fm0BiGdPLoyaKr2R9pCbUp+Tg3Z+JP3V8glZQy2dTVWkZys5bx2PB3iZIU5lyEp2I2Yg9zyLkvegR5yVaXRQad0ZMNgsDMyhdFkDYHT2S70yd8STASrCLsrwdQ90XDw22wbz+ZehmPR7EsIHMpFmLv3CKBWHMfEcVe0PfxSvjY0WfTg5JQxP8WEK4uA2mRj/FUQ8XQsETrMujBRsLmUS2e9msKbqzIISOIxwWVMMq5GTCPYITqDkk+m6mpfGXjo2iEnLQEM4dJOQiZdHwFB/IvRjvBr+jnmSgrGqeC3gLkiJqSLANqgE9GHV7omQ+kRmPCZGqKLuIOc4OxJBxHH5IBq5xyljIAjAhg5xeXSkV86CjoIwGuFnXOQMckaCOCfl3392xvGNURLigjsWg2UlDCJGgjQhWxa7NMQdBRRi4XebLw4qr5yBLD790O7fyDdvCFWS+jfbjKaPJcRwBZJwlpKFakdqkSRSQXe8Hrj5UomD4OiPWe+HK7YwEhMVjXOc4uNVzJ2XrxbX/aaixWrHcrAqQ0n/g8vrL2iy1TbuYK1VmJkNRunKULksdmR5tkZAWxSHYq2hiru+HCZEGH90dkEI5FDQDKZFIHab+bClbxPEhJtXfkWZpqmH9FEFsfTtve1LE9oipclNtVkqR0RfqSsnFerMPGno+3BeS+RFINvmhBsnvymmJCJn0KA6M1U+tIOL/GY2ZrC+RZwZTyFqlLycGIvjfFz2WoCKKT8eKRzVdRLO6driHI5hKJeL5VVbdnExjkX93tNhsJnhhAE6rh8Flu6g1ULnAeGo2ak8a1uQ7/xVw+KLyhyDiEn2+svkmA/LpC6WiPgmIDFvi9E2sO/XSgI5hCilKbHx7pRS/oXygDf6kEzBffObZGO4OGFtLGAEOWbywVp/dy4kIYupC418WMkPokfN3+9kHqVrgJCVGSkLfwCfoP+uXq+Cq+zGODcOl9nBbe42RKiCgss5Q9jTHzabcHVmY8/F6ijrW+3hZUv1aJcM/MQG/XqTERMT/5WaW9vG1WLGoXx/ij8qXagvzi4qIZAedEaogyLttdH0MHfiw2s9xfbUK/0w5v9RZyjssUPZKh3LFlDciA07x+8maRQfw+tzcVV/R0jSRx08w0cFPMrP71LyRqSMzTSWn8iIOmj8HKcl1derrzFvdM7cDD/yoqa4Ca/kaFw0aoh0wCqc0ziiZ1YiOxCRttTq6dlffaAGfe/0Dx114VDh05u86+3ZnmETIHcsPf8KhawvgPXyYcQtdRn2E+bg846hfOtnudMHjjbUf/qdIKPH1wRknsfdcL0klR6O158O/ZTtuTiF/k+hoHIn0nwI7Wy5oXTHcuTi2xPWernRchsTQ298c1wGPssfki5C03aJxaqSUNTNIGGF38k8ddxfxlHt/6p0ke3zn5Pr58rRshsQ7ceoJohmbxZSLpJnekOJR/CYSsN+HLXY05TM1tW9xk+HiNCUAz/IUWZZUWJyRgOVHsrnRo9ppZ7dMvxu5wnhBR9aQwKmv87tCbLMkFhiZUcP5kSyQBmQ8tzebgUF5iQ4/gD6RIIHGZSjPNA+ny0dbXZFsiBZO4GAYOAQcAgYBAwCBgEDAIGAYOAQcAgYBAwCBgEDAIGAYOAQcAg4HME/g95R9jmzmpWYAAAAABJRU5ErkJggg==;" vertex="1" parent="1">
          <mxGeometry x="970" y="462" width="80" height="80" as="geometry" />
        </mxCell>
        <mxCell id="qNAi8replDsRPzOtBU6N-42" value="" style="shape=image;verticalLabelPosition=bottom;labelBackgroundColor=default;verticalAlign=top;aspect=fixed;imageAspect=0;image=https://external-content.duckduckgo.com/iu/?u=https%3A%2F%2Fbranditechture.agency%2Fbrand-logos%2Fwp-content%2Fuploads%2F2023%2F01%2Ffastapi-1024x1024.png&amp;f=1&amp;nofb=1&amp;ipt=8da370c654ffd3549b7c2a48acb3e11d5d55c2610e7a0efa86d30d65a195f44b&amp;ipo=images;" vertex="1" parent="1">
          <mxGeometry x="810" y="607" width="45" height="45" as="geometry" />
        </mxCell>
        <mxCell id="qNAi8replDsRPzOtBU6N-44" value="" style="shape=image;verticalLabelPosition=bottom;labelBackgroundColor=default;verticalAlign=top;aspect=fixed;imageAspect=0;image=data:image/png,iVBORw0KGgoAAAANSUhEUgAAAGQAAABkCAYAAABw4pVUAAAMP2lDQ1BJQ0MgUHJvZmlsZQAASImVVwdYU8kWnluSkEBCCSAgJfQmiEgJICWEFnpHEJWQBAglxkBQsaOLCq5dLGBDV0UUrIBYUMTOotj7YkFBWRcLduVNCui6r3zvfN/c+99/zvznzLlzywCgfoIrFueiGgDkiQokscH+jLHJKQxSN0AAAZDhkcbl5YtZ0dHhANrg+e/27gb0g3bVQab1z/7/app8QT4PACQa4nR+Pi8P4oMA4JU8saQAAKKMN59SIJZh2IC2BCYI8UIZzlTgShlOV+C9cp/4WDbErQCoqHG5kkwAaJchzyjkZUINWh/ETiK+UASAOgNin7y8SXyI0yC2gT5iiGX6zPQfdDL/ppk+pMnlZg5hxVzkphIgzBfncqf9n+X435aXKx2MYQWbWpYkJFY2Z1i3WzmTwmRYDeJeUXpkFMRaEH8Q8uX+EKOULGlIgsIfNeTls2HNgC7ETnxuQBjEhhAHiXIjw5V8eoYwiAMxXCHoVGEBJx5iPYgXCvID45Q+myWTYpWx0PoMCZul5M9xJfK4slgPpDkJLKX+6ywBR6mP0Yqy4pMgpkBsUShMjISYBrFjfk5cmNJnTFEWO3LQRyKNleVvAXGsQBTsr9DHCjMkQbFK/9K8/MH5YpuzhJxIJd5fkBUfoqgP1srjyvOHc8EuC0SshEEdQf7Y8MG58AUBgYq5Y90CUUKcUueDuMA/VjEWp4hzo5X+uJkgN1jGm0Hskl8YpxyLJxbABanQxzPEBdHxijzxomxuaLQiH3wZCAdsEAAYQApbOpgEsoGwvbehF14peoIAF0hAJhAAByUzOCJJ3iOCxzhQBP6ESADyh8b5y3sFoBDyX4dYxdEBZMh7C+UjcsBTiPNAGMiF11L5KNFQtETwBDLCf0TnwsaD+ebCJuv/9/wg+51hQSZcyUgHIzLUBz2JgcQAYggxiGiLG+A+uBceDo9+sDnjTNxjcB7f/QlPCR2ER4TrhE7C7YnCYslPWUaATqgfpKxF+o+1wK2gpivuj3tDdaiM6+IGwAF3gXFYuC+M7ApZtjJvWVUYP2n/bQY/3A2lH9mJjJKHkf3INj+PpNnRXIdUZLX+sT6KXNOH6s0e6vk5PvuH6vPhOexnT2whdgA7i53EzmNHsQbAwJqxRqwNOybDQ6vriXx1DUaLleeTA3WE/4g3eGdllcx3qnHqcfqi6CsQTJW9owF7kniaRJiZVcBgwS+CgMER8RxHMJydnF0AkH1fFK+vNzHy7wai2/adm/cHAN7NAwMDR75zoc0A7HOHj//h75wNE346VAE4d5gnlRQqOFx2IMC3hDp80vSBMTAHNnA+zsANeAE/EAhCQRSIB8lgAsw+C65zCZgCZoC5oASUgWVgNVgPNoGtYCfYA/aDBnAUnARnwEVwGVwHd+Hq6QIvQB94Bz4jCEJCqAgd0UdMEEvEHnFGmIgPEoiEI7FIMpKGZCIiRIrMQOYhZcgKZD2yBalG9iGHkZPIeaQDuY08RHqQ18gnFEPVUG3UCLVCR6JMlIWGofHoeDQTnYwWofPRJehatArdjdajJ9GL6HW0E32B9mMAU8V0MVPMAWNibCwKS8EyMAk2CyvFyrEqrBZrgvf5KtaJ9WIfcSJOxxm4A1zBIXgCzsMn47Pwxfh6fCdej7fiV/GHeB/+jUAlGBLsCZ4EDmEsIZMwhVBCKCdsJxwinIbPUhfhHZFI1CVaE93hs5hMzCZOJy4mbiDWEU8QO4iPif0kEkmfZE/yJkWRuKQCUglpHWk3qZl0hdRF+qCiqmKi4qwSpJKiIlIpVilX2aVyXOWKyjOVz2QNsiXZkxxF5pOnkZeSt5GbyJfIXeTPFE2KNcWbEk/JpsylrKXUUk5T7lHeqKqqmql6qMaoClXnqK5V3at6TvWh6kc1LTU7NbZaqppUbYnaDrUTarfV3lCpVCuqHzWFWkBdQq2mnqI+oH6g0WmONA6NT5tNq6DV067QXqqT1S3VWeoT1IvUy9UPqF9S79Uga1hpsDW4GrM0KjQOa9zU6Neka47SjNLM01ysuUvzvGa3FknLSitQi681X2ur1imtx3SMbk5n03n0efRt9NP0Lm2itrU2Rztbu0x7j3a7dp+Olo6LTqLOVJ0KnWM6nbqYrpUuRzdXd6nuft0bup+GGQ1jDRMMWzSsdtiVYe/1huv56Qn0SvXq9K7rfdJn6Afq5+gv12/Qv2+AG9gZxBhMMdhocNqgd7j2cK/hvOGlw/cPv2OIGtoZxhpON9xq2GbYb2RsFGwkNlpndMqo11jX2M8423iV8XHjHhO6iY+J0GSVSbPJc4YOg8XIZaxltDL6TA1NQ0ylpltM200/m1mbJZgVm9WZ3TenmDPNM8xXmbeY91mYWERYzLCosbhjSbZkWmZZrrE8a/neytoqyWqBVYNVt7WeNce6yLrG+p4N1cbXZrJNlc01W6It0zbHdoPtZTvUztUuy67C7pI9au9mL7TfYN8xgjDCY4RoRNWImw5qDiyHQocah4eOuo7hjsWODY4vR1qMTBm5fOTZkd+cXJ1ynbY53R2lNSp0VPGoplGvne2cec4VztdGU0cHjZ49unH0Kxd7F4HLRpdbrnTXCNcFri2uX93c3SRutW497hbuae6V7jeZ2sxo5mLmOQ+Ch7/HbI+jHh893TwLPPd7/uXl4JXjtcure4z1GMGYbWMee5t5c723eHf6MHzSfDb7dPqa+nJ9q3wf+Zn78f22+z1j2bKyWbtZL/2d/CX+h/zfsz3ZM9knArCA4IDSgPZArcCEwPWBD4LMgjKDaoL6gl2DpwefCCGEhIUsD7nJMeLwONWcvlD30JmhrWFqYXFh68MehduFS8KbItCI0IiVEfciLSNFkQ1RIIoTtTLqfrR19OToIzHEmOiYipinsaNiZ8SejaPHTYzbFfcu3j9+afzdBJsEaUJLonpiamJ14vukgKQVSZ1jR46dOfZiskGyMLkxhZSSmLI9pX9c4LjV47pSXVNLUm+Mtx4/dfz5CQYTciccm6g+kTvxQBohLSltV9oXbhS3itufzkmvTO/jsXlreC/4fvxV/B6Bt2CF4FmGd8aKjO5M78yVmT1ZvlnlWb1CtnC98FV2SPam7Pc5UTk7cgZyk3Lr8lTy0vIOi7REOaLWScaTpk7qENuLS8Sdkz0nr57cJwmTbM9H8sfnNxZowx/5NqmN9Bfpw0KfworCD1MSpxyYqjlVNLVtmt20RdOeFQUV/TYdn86b3jLDdMbcGQ9nsmZumYXMSp/VMtt89vzZXXOC5+ycS5mbM/f3YqfiFcVv5yXNa5pvNH/O/Me/BP9SU0IrkZTcXOC1YNNCfKFwYfui0YvWLfpWyi+9UOZUVl72ZTFv8YVfR/269teBJRlL2pe6Ld24jLhMtOzGct/lO1doriha8XhlxMr6VYxVpaverp64+ny5S/mmNZQ10jWda8PXNq6zWLds3Zf1WeuvV/hX1FUaVi6qfL+Bv+HKRr+NtZuMNpVt+rRZuPnWluAt9VVWVeVbiVsLtz7dlrjt7G/M36q3G2wv2/51h2hH587Yna3V7tXVuwx3La1Ba6Q1PbtTd1/eE7Cnsdahdkudbl3ZXrBXuvf5vrR9N/aH7W85wDxQe9DyYOUh+qHSeqR+Wn1fQ1ZDZ2NyY8fh0MMtTV5Nh444Htlx1PRoxTGdY0uPU47PPz7QXNTcf0J8ovdk5snHLRNb7p4ae+paa0xr++mw0+fOBJ05dZZ1tvmc97mj5z3PH77AvNBw0e1ifZtr26HfXX8/1O7WXn/J/VLjZY/LTR1jOo5f8b1y8mrA1TPXONcuXo+83nEj4catm6k3O2/xb3Xfzr396k7hnc9359wj3Cu9r3G//IHhg6o/bP+o63TrPPYw4GHbo7hHdx/zHr94kv/kS9f8p9Sn5c9MnlV3O3cf7Qnqufx83POuF+IXn3tL/tT8s/KlzcuDf/n91dY3tq/rleTVwOvFb/Tf7Hjr8ralP7r/wbu8d5/fl37Q/7DzI/Pj2U9Jn559nvKF9GXtV9uvTd/Cvt0byBsYEHMlXPmvAAYbmpEBwOsdAFCTAaDD/RllnGL/JzdEsWeVI/CfsGKPKDc3AGrh/3tML/y7uQnA3m1w+wX11VMBiKYCEO8B0NGjh9rgXk2+r5QZEe4DNgd+Tc9LB//GFHvOH/L++Qxkqi7g5/O/AF35fB/Z6k0uAAAAOGVYSWZNTQAqAAAACAABh2kABAAAAAEAAAAaAAAAAAACoAIABAAAAAEAAABkoAMABAAAAAEAAABkAAAAAAxz/HsAABdBSURBVHgB7V0JmFxFtT5Vt2clEkIIKGsS2STBBwFBQgLOkkRAkEWQTSDwDPAewQScJTHAsGU2NhFZhUdQZBOUxZCQWVgGkMUniIiAEkCFFxImrD2Zmb513l+3p+/c233v7dvddzrk+6a+r+fWemo5VadOnXOqhmjUjY7A6AiMjsDoCIyOwOgIjI7A6AhEPwIiepBFhFjftZsUfBoT70kkBgSLx5Us+SW1zFxfxFZEWtWmiZCGVXtKQXXE8kSMhuEaEebPSNJtSpa20NKD3nelbQKBTQshjav2liwXEfH3sCKytb2fmJcpMi6ltqp/bQK4sJqYrVNfjH40rJohhGwQTN/JuUFMAyTVPcrkS6l99ps5ly9ygS82QjQilLhYSFFd8LgwKRJ0v2J1EbXNeq1geCME4AuIEBZGQ5deCUuYaL/I+w3EsKTlrOTFIGUvRg6/QIBfHIQ0NUmjb+ZhQEIT+jStwH6FKs4kOpjFBUDMH0IVKEKmjY+QeS+WGOM+OQETdzE26t2K0OeMKrA3PQ1y1mq21jyckVjkiI2HkKZ7S42+rY5nNi8gIXcucr89qxtGTPUjmBxYrMV3xUfIj1duJg3jP9HhOnR3u+J3OUSNzC+Dq7vKrHjyV9TUpEKUiCxL8RDSsGoszhDnYOItADK2iqwHzAlwYU8zM2CKKZHBTQJ6RRAvNSt67i0WYkYeIed3byVj6kfo33z8xkY6YECGYqqm9tqncFgUsr6rGXtBQ6R1aGBMbwhJzWbv2Dvp5n0HI4fvADhyCFn85FdkYvB89OZMHKrHOOqMzMuKu7i9tsYGqFchyY/scNQe5rfRlzYV77+NfnZof9TgNbxY5EDP79xJSuwPiYEz0PhykJHIq0gBFEKMc+28MbU5JWQqOfqvEBMB9HpZWbaEGruuUInBm+mKOZ9HWVF0o/XjlZNkzFgAynEmGlgWZSP9YTGrmNiBLq/5t85jNHbNw15yk3/+qFN4HSbdz9UGeQ1dUxXJyix8Oi3q2FU2dN4pjdibQMa56HKRkKEHVwgjwVWpYQYyalP+4nzBnDBdJMvM1bKx4xKq7/lSofUWhBCjvuNUadLLaESmGLzQloUszyS/ZmdlGvbbkcXwiC0wGS+Qov8vVL+qoDbkj5D67m9C9HBbcp8oRqf96uAJdorQrO9GdTtKYfyecNbKtxV5I0RQAidsqII2ugNDmnKQS6a8G+/Lk3DwPS3f+oc7kwuEpu5ynGSH2c1cykaeV72QAgl5mO1PxW2MLzi/w/OtNz+E9PM+qLCIm7dP91j9XVUYt6ZSmWM/wbnHxQmn0or5FSS+iZN9XmObXyGm6cXsoGddzBuI5O3UVJWw09urXoKhwzPgfIoqf7LrH/aMpb4D8xLj5HUwBHs5PdQBhukvaOOt2GvGY+ZCfCLyZwsFv4PyD2PAnzIT/BxdWfMuwhmrwWyrmUHzl5dRZfnuklhPnG9h0RwK5qMAaQF6TKILffgI/T4U9VYMj723T5KYjlnxineqf2yocU0vjnPHGsRtnR7vCjOtVZX9O1PToZ/o+Fhjx7chd1qOzuRSJ8QTfI9i44aClEgLn6kwyuJHwErlHJgMzXC1M1zgXNVa8zMra2PHN6SiZ9CN4MksxDLVUn1aOPDDuXIZnGSpxu6dJausxgIs6BFuqXFtbrKh60YM8JnD1fv5eBB8/a2qhC5LncL9cuYcv6jrQMNUS1mIg8KUBQJXcmvNIc7VCBXzUyEQ+yaQuGuYOpx5ct5DDJArJwA/P4jJNGrqdpEJNVC+kJV43K+MjscMeV6ZtK9qqzk7EBl+m6ZffKrS5uqnzbbag7HxnoS9Zm0q2vMLMgnhzOlOZNCx92II1Pae+V2RvDPOI8FUxJU/GcgZISDaoRAC8NsafaozVt8xC6siuRKvnt7HovQIPesy26LJNDebFfJAuqL2z5npiKnv3A8iiqWiobNLxg983TPP5zP3Akn9N/Lcj7znU3235+CZrdW/VjHeE/3p9oRD9K4SNJvaZr9npy/qGC8nj7sF5GqiHefrgVjHKDnAN9knIWeShc7qwdrTB553tKK/QTLbYLZVP2RlaOqOyT7zPFY0B8qlfbHplgopTzZbqu/PAIANWlaWnoX4H2Km2pwLFEcvmq2138jIj1kJuZre41LOxKA/hk3250DC71OR9hczXk4efzXC84fidP4ujtFce4VqCXaMmtDO44EMSLDDOojqW6tz0s/khpCk1q+3gBP63YrL5lHbjE/tLlliBuOrmasCx+7GruOh81jqNSNZqIe4ZdZ3bTi2x1JUbUAbS+2oIY+lP2FamFkXGOiGzvmwE34tUW70gJUGS510iD8bvnb8NhuKCv0BWezBJJgZugAy5oSQWEPXHEW8IpcK0vNaMzs+MCNQwQPEQyrzP2jcUenlHeEbsGn+lyNse0Gq3gaV3MmOcHtMLaFVbdVLXXuDO48VAjKuh0cjJD+Hs5Kq7B1LTccNhAWQ0x4Cvjrs/uFbPzaKfY3Kco+ZPVREmwURrcyCDGxLZOlAvCoCQ+GbhvwGpuFlorHjd9T0cKVXeSuurkPP7PyRoYFo8hafMM2CF/JPTggBbS0YIbpdOGY1Es4Gnm2EztpMxL6DtLs904cigbDhzTYtI5AehBDk5nWSxV3UdHg8ragdhMgSB9nCnRRmTmMWHiHY/ASp/QtvIiAI3pzG9gO/Pu7KqnUgRyfgCHk0Bu//vHJhwIIGPQBZ9IAyaCoYAn+EgzMD/T/Sq95c43KdxOERMnECOKsCRB+OnghFC5wbpyPJ5TVban6rBhJTIJn6lSsBgQSr99Pj7LCgzDSmD4HgE3HIO4aW1q6x83p5ktcXbvNKyjUO5HNkVgg4kJwA+zUcrO7DZnvtI+70oXOKOzIZuvrbvaq95gcgUUe4VoupfAcVCP/ACQrc1YOwsJ4KBN/ljA/yKzOxBOkfB+UJlSbEV3BAnBQqLzKFXyEyN0z7NQAq1wudabHGztmysetaDDbG3N9pu1vcivo6SMDvkMukdz7+0De3oCEyx5/i/HMGTIWOpPYqT9KXghGr76qhhSu2TIVhTfIBmnSlHS7AY0gj9GQOj5Acl55X+7EHPYeBeclOg5hDKW4Dx3QO5Fw4nAUjhZoPWguScxTo+4l033GmDSfNY1bEnwDMJUqJvXHYzE566roOBjv/kCwtqXOCUpS4FRxIwhmXjx/XH0IjJHBW2pVrozdz0HejtPNl8YCGzwXZuD2VzWjs+D6uAzg312uwmS9MpRflC2GjNNUKsKhjgMQ4xCmTnXuMaFz1oGAJclmI45dUa+3eYSCEWiGGSoTGsH+l3Gf2V9zjTFcsznCG4V+AlRIJmUiD6x1c1LW/VLzcQobOIagSVjQnOTNLNrKvMGcBT7/YM6yJUCiEQOxXMEJwY+k5gnDRbu9POrfD8qy2w7aHz8MJ+So7OFKeuu69LGQQbe6uAlJghzMrNnQj6EseHVmDvEZMbgh1ZAiFEND+ghEiJPc4WywTrA9/OJR7uoXJlZJlT/EsGiJS3+aVqhM5hzfx4WLTCMJEO6gVbIJetcN5epSSoSS/wVovXTksTLhPhaJ/QW2FtLVHuTLAECDQYaXUd45RlU1nU9AdDbSPNsSSp/5+Y4NrFXrB12TKVI9ikMd5Jes4Iyb2x5J4x063NIT0dTuchyfsATH7CulL7Iv6y/Jog6tIQgi3/kJRFoSguBDzZN+M+S5AjoBWC8u4uV7yQK/1K41/DG3ecY4sbm9D50Fg61YBri8ydAGIdvZzFRT0V1c4j4AQKpQlSlaEwBIv1FLL2kZV4j43CNoxsAw4HutAZxiatGQ62BRDR38XBrd8OFGUQJu3DEopPYncDoJEofg8cFIl7oTMEAjlJGcsuMN1znB+fpibDhy8R7ayWRHCpjowG5AQ6f0uHYgmM+BoMsoxr8cAL4NlyXfVYMVW1oFuaZW2XHE7rVRS4jdYQlu4ExACgiSZ91mWJ85ECBI1PDVYuaVkno1lAB0H++0NrhUE5sM9mZxwc/AbKru0I+seAo1e4SuEudfV7vjglpSy+kwi4UHUc59Z9mFHKN3BlAkV1GdO1XyqpxNiIlVUTEDavzLSwenhpLcK8fpXr8UaUsYOg8LrcOhgDkZcGXQ2rnsnCRIfwqQoA1SuEUP7yM1B5YIRAgsTYrV1EIBwaWkmMwqnX4NuzwkJzoqaqj6jus7XIfjZ3Rlt+5nWhH7f5Io5q8FsXIey1zGMMow4z4b43lYVWzAFLjYVjg+9OWXlVgMRYpCaEUU7IG4fYw+W9kBOhEGY64rLNYCLnuihJ0KwByAtDwdEg7t6ACX1z3Yxk8bA4CEKtwst7tjGKQlIBxq4h0CskZ0TSoeYHtaPv7C8ND260LCS6lbA+CQTDvdBcXNTZnz+MYnV6x7HvnYMJkDBm7thysAxDUQIGpB1iQV3k/8hJR8G/XVzcL48Uptrn1WidCLkkReCnKwFOViPPWWpMs2JiZaax/KA6F8EgkxYzDwAYSUGk+9AfW+gviGho2XU90+E3/cHMJwytI8MR6T5/BdiSAsTAHgee2sLNsJPmaU++caglFmTKOG/2WY0aZVGHgTXRVMmCJfhdeSVeADU3CI9MZA6uBr1nXNBLm/zyGlHZbNE8UVIKAsTvN6mBowdorrwSHhugz4bux04sO1BdnZE53bCCpiEg9oEWDz+CAbW79g9y8WjDSe2+OgUrKABrfpNKGgbjbJ11DwTJAjTJ0InGzr+BJh7+YOE3KOidws/btJ3U1eCD8jKWUjxlicyMHMsbkVwtcWlCfGEEvJFaqn+o7OhaPyFLHgfGBxsi1HZnvrEl1PSLXuUMGWgZCKOcSvK5oeQcZ/sAc7pF7pufXtE6ktXapCooQsmQZ24ScvrIPxcC3nbB6jrXpfBHgzvDMOoRvnpUCXPIolrEEzP48LScrNCrMxQRSMheNxgOR8frxH2vG5PuvNFCOSbX82qT2SaQos69qDm2qRoARo3KHmW4IyApTt0aNOdJzoBhzFSDV17UWv1y3YjGKgghmlpFqcv7DfX/CFLLv/kiidfob6Z7yLDjmmZtEnQNkD5NkCGlWSawrXf4XraWUDGxVai1RU9Q2gvmMPOk3FeQw2dl6uBil/Q2Mf6Zd/M/wYyssq8DMGTwc15IsSqIq2RyaCkYVG5ZwYr0pCmeBxCwBaIzK+WJbG/I3YhWpx5gkYCTtAnO0EpU9yADsSdcZ5+Ke4EzKx48yyrI5PCyV/7pg8loIJOl0YzqcE80bechUy6VpbG10DmpnX81/rmdSaw9O2zL0IE8xNOGL5+QRMwYxqQvgC0xSVyyCjDcq7rhirMfZDnhox8aRFKKSDE38Ggu0r//HOAQpHKghDsVEq42HPo++dgIuwWBDeZpq1xwj6ow4NYhc/4wfRFiFnZex8KveZXMK943KSCmOKHzrJKJS4CZf+HM87t55cC30iEehmHtgdx0HyI6rq/7C7rCLXO0reZ/PvDdAu1V7smocmi3gEhIq+4kZIT0ROeL0I0F4CXPI9Hqc89S+YbKWgRLegeJml4KwSvU54C0oUx9XR3ecYORUqz/3LMzi9hdY6B0umSoLxYyff6pL8HblGvcttBjH8YdovAVWdnDusR9GeYFy0Kyu6PEF0K9zTAN88LApBH2tayTDW5yrXW4IoYezRUUxHDbxAJD8DsAynAqQ5YpxMeWXaEXV5wjpmwNOsu+EgXtwguEQTsKlfhwgO9sGw5KttjNcEIQSP0xRZ8rim8PQ4ITPNBn6sdMQSrjDZQ+iuccZihz1JL1dvOONsPEyKD1XWY9c4+GAYZ14MEoqiH09xg8iLqUCIPSknHUkvtC87csk/pd7d2dcYV5MfqR4NORj1vZYPj7IxvXlUh67JdRfMt7JWAQYQY4nZa9KQWkdsOSNE0+6epCJz8XVYqqXj9NeIz5oIdhSjD7fTdP6Ox8zh3rCMkWO+N+kDyGZpxbKKldoUjlYyGzkOAtHOdcQX7BV8AQ79Hw8AJhRAtkmAe/D4m3j/DAA2VR/AOhhrAlQAtfkg5wbDLWgAGF3sKSEkslhy8VHLq2/gU9BXu80IqSX9xyGt3cXOORMVACNNbIFPTsfofdCQRLe6eCtb37rRV58qSawDwfos+uc42QTDCIURD0CJzqY7BQG0IAphLmj79ig2Je9K1e7hr/ksM2BS/x/Ql9V+GQXOtLle9QLY0Sha74lIBvGqthJpGSa4rFUtU99gu0jT1LN58OLJg32vMZdjjwp+hvGltQDvwJNMZOIVbYoiAbDklYRY9yhXx7wXd17ABJh/k1zTfz4QolbVfKUgS2msCWOqhrA1dUyDv0BLibVOFI/h+AkPA/ait+vVcYIVfIUNQcaUY9q50Yy6VZMuLWXGIjFf2uOyhfArBrPNKJGVDhi5dhqcGPTg3N2DsGYdLUs8iNkJkQJOkWfkckaFblvMKsbqjH0GOj38ctR5ghaP6Y93h4HMCL9NAcktbfLw3ZtJ0CPomkSm2hDHzeBJqEEoknPzlOnTqVdMcfApkdrVv03CDS5b2NWNyzY9yz7DqE3ypaqm90LfugIT8EKIB1j+2LaSmkN5CQhuxQ6PmgSu5JWKwLnC4GPpTMCnRclOoASen5Vz59OEpHYmr0hCBnEmWDRMX6nHQORZNgBw7aif6o4aYAY/F2oy4QiPwXBTL8pPzRYau3l/8HqZxrbN6qKED0l3LaiNMiVB5IKkfFq2gxJCybFeVgLwqFyWVfmYjfvA03P46CvdQ7scG/7+OBnjZ9TqSc/Z+jtPf0YX+/6v8SZajvbgBdTvWKti7aBwG8JDUgU0/tAn2+HrQ+coh6O/iC92IwOsQvBr/DeQjqFw+02nINw7I3Aon/snMxlTLfDOlCoDeXQrxg0Rr9UqdF+qC+fiEE5frAoEOm7igE8yWWt+DbGBxR2JhK2QIkCoXZxlxNRWt2scBO08vv5oo79EsKPnoqHdEEn44k4NfhlAx+dUFbAfTbov1d8w3nFsggn+U6rqqtFRXVfQvk31lTSgSwUrhK82WWQUjQzc//z1El045PEUBGX8kZjJgF+ssGgxyg/Fekqoimi8UtNJcbMGy3vHiSwqFizZ2qrfWNxYKJ1U+GoRoaKDtIAkQr6TMY1JV5PIVN6VkPrENM6pBpibnUjpMXiB8FuGykM6r3uq9DuGeMOU88+jnmxLy+KD7jp7lAiKjQwgqgT1UF9ZcXrMFVHiFWr+5puuWUwW87JmC4f3Fs0mmOMxK0/ZWUh0J6veGd96gWFiPmOLoIGVTUGm/tEgRoitRLTVXgb/PjZ5CkMiy5ETnv4LAzP0Pv0YXGg9p+DDs5toPlWSXrj8MfEiKz0rj2sIUy5oncoRgl2WlBs9AzVplGs5pc6K0f5eKDXuXcIVzzwWxvlvXUd7zx5xIraDrICm+I/eas5cYAYSgUq2WVXhayTLvzN4IKG93J/xfWztn46pvwR+hbMmGbHmsN1uG9hEdgf8ONwdsWSiOU+85qnfseW6I0YUcfGF0QFOQtLIHM/2RcLIibcgs8Za8KgfJ0ytssxScEfnqZ2dZS63VWNR7dsj63sPlzX2yvQpRSHtHFCG6YTiAadb10kIa+cUoy4MQFVVDj5I/VxaiIyNDshwV483By8Gr/8YRtUl6cYA5Z6SRoQdmxBGiN3lozU5HXX/dJDFhNZrvgL3vzcVofxEQgm7g0Utoz46G7+NidCrSOpj+pAYqz4oUZgCw4iBENwDaM3Aop0IGBQq2yThcvcPDM84nQUa46cVDCDpiWXkIsXSE+xQReGziShwX+vJoRLUaEcEJDYZ7lnWLGavBavL+lqg2dMliZrQePjuJ22pWFLNWXdeIs72+HVrUcQCuMpwCXcbXoNMY45uviAlKiA9AVl/AfndLsVdGEbs5WtXoCIyOwOgIjI7A6AiMjsDoCIyOwOgIjI7A6Ai4RuD/AZST/FuDKmdRAAAAAElFTkSuQmCC;" vertex="1" parent="1">
          <mxGeometry x="550" y="680" width="100" height="100" as="geometry" />
        </mxCell>
      </root>
    </mxGraphModel>
  </diagram>
</mxfile>
